<?xml version="1.0" encoding="UTF-8"?><svg id="Layer_1" xmlns="http://www.w3.org/2000/svg" viewBox="0 0 1491.5 405"><g id="hD1ybE.tif"><g><path d="m738.4,0c3.6,2.7,4.6,6.2,4.6,10.7-.1,125.2,0,250.3,0,375.5,0,8.7-2.1,10.8-10.9,10.8-15,0-30,0-44.9,0-8.7,0-11.1-2.4-11.1-10.8,0-125.2,0-250.3,0-375.5,0-4.9,1.6-8.2,5.6-10.7h57Z"/><path d="m1185,168.6c-3.9,7.2-6.3,8.1-14,5.6-14.3-4.7-28.8-4.6-43.2-.6-17.6,4.9-25.7,18-28.5,34.8-1.3,7.5-1.9,15.1-1.9,22.7-.2,52,0,104,0,156.1,0,7.2-2.6,9.8-9.9,9.8-15.6,0-31.3,0-46.9,0-7.4,0-10.1-2.8-10.1-10.3,0-87.9,0-175.8,0-263.7,0-7.6,2.6-10.3,10.1-10.3,13.3,0,26.6,0,39.9,0,5.2,0,8.6,2,10,7.1,1.2,4.4,2.5,8.9,3.7,13.2,6.9-4.7,13.5-9.7,20.6-13.9,19.2-11.3,40-13.7,61.6-9.6,3.2.6,5.9,4.1,8.8,6.3v52.9Z"/><path d="m832.1,291c5.2,15.3,13.3,27.7,24.5,37.9,9,8.3,19.5,13.9,31.8,15.2,25.7,2.7,50.3-1.2,73.8-11.9,7.4-3.4,14.8-6.7,22.2-10.2,8.3-3.9,13.4-.7,13.4,8.2,0,13.3-.1,26.6,0,39.9,0,4.4-1.5,7-5.3,9.2-21.8,12.3-45.4,18.7-70,21.7-19.8,2.4-39.7,3.4-59.6,0-43-7.2-72.9-31.1-89.6-71.2-11.7-28.1-14.5-57.7-12.9-87.8,1.2-21.3,5.7-41.7,14.9-61,18.8-39.3,49.1-64.1,92.3-72.3,23.2-4.4,46.3-3.3,68.9,4,31.7,10.3,53.2,31.7,66.3,61.9,9.1,21,12.8,43.2,13.2,65.9.2,12.8-.7,25.7-2,38.5-.8,7.9-4.8,11-12.9,12-1.8.2-3.6.3-5.5.3-30.1,0-60.3,0-90.4,0-22.3,0-44.6-.3-66.9-.5-1.8,0-3.6,0-6.3,0Zm-2.5-55.8h117.2c10.1,0,10.5,0,9.7-9.7-1.6-19.8-8.9-37.1-24.8-49.7-9.5-7.5-21-9.7-32.8-10.3-22.6-1-41.9,5.9-55.6,24.9-9.4,13.1-12.7,28.2-13.8,44.8Z"/><path d="m393.7,374c-9.3,6.4-18.2,13.8-28.2,19.1-18.7,9.8-39.1,11.9-60,10-21.9-1.9-40.8-10.2-56.2-25.9-13.9-14.1-21.6-31.5-24.2-50.8-2-15.4-3.4-31-3.5-46.5-.4-51.7-.2-103.4-.2-155.1,0-10,2.2-12.2,12.3-12.2,14.7,0,29.3,0,44,0,8.7,0,11.2,2.5,11.2,11.3,0,53.2-.1,106.4.1,159.6,0,12.2.9,24.5,5.7,36.1,5.5,13.6,17,21.3,31.7,21.6,13.4.3,26.3-1.2,37.6-9.1,13-9.1,19.6-22.5,22.5-37.5,2.2-11.5,3.7-23.3,3.8-35,.4-45.4.2-90.8.2-136.1,0-8.6,2.3-10.9,10.9-10.9,15.3,0,30.6,0,45.9,0,7.5,0,10,2.6,10,10.2,0,87.9,0,175.9,0,263.8,0,7.8-2.6,10.3-10.4,10.4-12.8,0-25.6,0-38.5,0-7.3,0-9.5-1.5-11.4-8.5-1.4-5.1-2.4-10.3-3.3-14.4Z"/><path d="m513.7,168.9c-9.7,0-18.7,0-27.6,0-6.9,0-9.2-2.3-9.2-9.3,0-12.6,0-25.3,0-37.9,0-6.2,2.9-9.1,9.1-9.1,8.7,0,17.3,0,26,0,.3,0,.6-.2,1.5-.4,0-1.6.2-3.3.2-5.1,0-16.3.2-32.6,0-48.9,0-5.5,2-8.6,6.9-10.7,16.5-6.9,33.8-10.8,51.6-12.7,5.4-.6,8.6,3,8.6,9.1,0,20.8,0,41.5,0,62.3v6c2,0,3.8.3,5.5.3,17,0,34,0,50.9,0,7.3,0,10,2.7,10,9.7,0,12.3,0,24.6,0,36.9,0,7.5-2.2,9.6-9.9,9.6-16.8,0-33.6,0-50.4,0-1.8,0-3.6,0-5.9,0,0,2.2-.2,4-.2,5.7,0,44,0,88.1,0,132.1,0,6.4.8,12.9,1.9,19.2,1.9,10.7,7.5,15.3,18.5,15.9,14.3.7,28.1-1.4,41.5-6.5,8.3-3.1,12.9,0,12.9,8.9,0,13.8,0,27.6,0,41.4,0,4.6-1.7,7.8-6.2,8.9-27.4,7.2-54.9,9.8-82.5,1.4-25-7.6-39.9-25.2-47.3-49.6-4.1-13.7-5.8-27.9-5.8-42.2,0-42.9,0-85.8,0-128.6v-6.7Z"/><path d="m201.1,362.9c0,6.5,0,13,0,19.4,0,6.9-1,9-7.8,10.8-12.5,3.4-25,7.2-37.7,8.7-21.3,2.6-42.8,2.2-63.7-3.8-31.4-8.9-54.7-28-70.1-56.6-12.5-23.1-17.7-48-19-74-1.3-24.9.8-49.3,8-73.2,14.3-47.4,49.8-81.2,100.8-86.7,27.4-2.9,54.4-1.6,80.5,8.1,8,3,9,4.1,9,12.6,0,12.5-.5,25,.1,37.4.5,10.8-6.5,12.8-14,9.7-17.8-7.2-36.4-10.2-55.5-10.2-25.9,0-43.8,12.1-52.7,36.3-7.8,21.2-9.5,43.4-7.4,65.7,1.2,12.6,2.8,25.5,6.6,37.5,9.6,30.3,31.3,41.3,61.8,39.2,17.3-1.2,33.8-4.8,49.9-10.8,6.5-2.4,11.1,1.2,11.2,8.2,0,7.1,0,14.3,0,21.4Z"/></g></g><path d="m1340,403c-2.2,0-4-1.8-4-4v-65.7c0-2.2,1.8-4,4-4h67.7c2.2,0,4,1.8,4,4v65.7c0,2.2-1.8,4-4,4h-67.7Zm1.6-96.8c-1.1,0-2.1-.4-2.9-1.2-.8-.8-1.2-1.8-1.1-2.9.9-26.3,3.4-44.1,7.6-54.4,4.2-10.5,14.6-22.1,31.7-35.4l16.6-13c5.1-3.9,9.3-8.1,12.4-12.5,0,0,0,0,0,0,5.5-7.6,8.3-16.1,8.3-25.2s-3.2-20.4-9.4-29.2c-5.9-8.3-17.3-12.5-33.7-12.5s-27.4,5.1-34,15.6c-6.9,11-10.4,22.5-10.4,34.2s-1.8,4-4,4h-65.7c-1.1,0-2.1-.4-2.9-1.2-.8-.8-1.2-1.8-1.1-2.9,1.9-44.4,17.7-76.4,47.1-95.1,18.4-11.9,41.4-17.9,68.1-17.9s64.5,8.5,87.7,25.3c23.7,17.1,35.6,42.7,35.6,76s-5.2,38-15.5,52.1c-6,8.5-17.1,19.1-34,32.2l-16.1,12.5c-8.1,6.3-13.5,13.7-16.1,21.9-1.7,5.4-2.6,14-2.8,25.7,0,2.2-1.8,4-4,4h-61.4Z"/></svg>